# Blender 3.3.1
# www.blender.org
mtllib Walls.mtl
o Walls
v 0.131117 8.454652 1.860061
v -0.145479 8.454652 1.860061
v 0.131117 4.204653 1.860061
v -0.145479 4.204653 1.860061
v -0.145479 8.454650 -5.860730
v -0.145479 4.204653 -5.860729
v -0.145479 4.204649 -15.579680
v 0.178701 8.454650 -5.860730
v 0.178701 4.204653 -5.860729
v 0.178701 9.242403 -5.860731
v -0.145479 9.242403 -5.860731
v 0.131117 9.242405 1.860061
v -0.145479 9.242405 1.860061
v -0.145479 9.242402 -15.579690
v 0.131117 8.454654 4.379747
v -0.145479 8.454654 4.379747
v 0.131117 9.307198 4.379747
v -0.145479 9.307198 4.379747
v 0.131117 4.204653 4.379746
v -0.145479 4.204653 4.379746
v 0.131117 4.204651 14.076770
v -0.145479 4.204651 14.076770
v 0.131117 9.307196 14.076770
v 0.131117 8.454652 14.076770
v -0.145479 8.454652 14.076770
v -0.145479 9.307196 14.076770
v -0.145479 4.204651 23.826771
v -0.145479 8.454652 23.826771
v -0.145479 9.307196 23.826771
v -19.725309 8.454652 23.826771
v -19.725309 9.307196 23.826771
v -19.725309 4.204652 23.826771
v -19.725300 4.204656 -15.579680
v -19.725309 8.454656 -15.579680
v -19.725309 9.307199 -15.579680
v -0.145479 8.454658 -15.579680
v -0.145479 9.307202 -15.579680
v 20.178701 8.454650 -5.860730
v 20.178701 4.204653 -5.860729
v 20.178701 9.242403 -5.860731
v 20.131117 4.204651 14.076770
v 20.131117 9.307196 14.076770
v 20.131117 8.454652 14.076770
vn -0.0000 -0.0000 1.0000
vn -1.0000 -0.0000 -0.0000
vn 1.0000 -0.0000 0.0062
vn -0.0000 -1.0000 -0.0000
vn -0.0000 1.0000 -0.0000
vn 1.0000 -0.0000 -0.0000
vn -0.0000 0.9997 -0.0257
vn -0.0000 -0.0000 -1.0000
vn -1.0000 -0.0000 -0.0024
vt 0.131117 8.454652
vt -1.859218 8.454652
vt 0.131123 1.860061
vt -1.860061 8.454652
vt -0.145479 8.454652
vt -0.145473 1.860061
vt 1.860061 8.454652
vt 0.131117 4.248238
vt -1.859217 4.248238
vt 0.131123 1.860061
vt -0.145479 4.248238
vt 1.860061 4.248238
vt -0.145473 1.860061
vt -5.860730 8.454650
vt -0.145473 -5.860728
vt -5.860729 4.248238
vt -0.132743 4.204659
vt -15.340990 4.248234
vt 5.861720 8.454650
vt -14.065106 8.392975
vt 0.178708 -5.860728
vt 5.861719 4.248238
vt -14.065110 4.158525
vt 5.861722 9.242403
vt -0.178701 -5.860729
vt -14.065108 9.177846
vt -5.860731 9.242403
vt 0.145479 -5.860729
vt -0.131117 1.860063
vt -1.859217 9.242405
vt -1.860061 9.242405
vt -0.131117 2.097032
vt 0.145479 1.860063
vt 1.860061 9.242405
vt 0.145479 2.097032
vt -15.341000 9.242400
vt 0.131117 4.379753
vt -0.131117 8.454655
vt -4.379747 8.454654
vt -0.145479 4.379753
vt 0.145479 8.454647
vt 4.379747 8.454654
vt -0.131117 4.617551
vt -4.379747 9.307198
vt -0.131117 4.379747
vt 0.145479 4.617551
vt 4.379747 9.307198
vt 0.145479 4.379747
vt 0.131117 4.379753
vt -0.131117 4.204653
vt -4.379746 4.204653
vt -0.145479 4.379753
vt 0.145479 4.204653
vt 4.379746 4.204653
vt -14.076770 4.204653
vt 0.131117 14.076770
vt -14.065110 4.158520
vt 14.076770 4.204653
vt -0.145479 14.076770
vt -0.131117 14.076770
vt -14.076770 9.307198
vt -14.065110 9.242397
vt -14.076770 8.454654
vt -14.065110 8.392973
vt 14.076770 8.454654
vt 14.076770 9.307198
vt 0.145479 14.076770
vt 23.826771 4.204653
vt 0.145479 4.204653
vt 23.826771 8.454654
vt 0.145479 8.454647
vt 23.826771 9.307198
vt 0.145472 9.307198
vt 19.725300 8.454654
vt -23.826771 8.454654
vt 19.725300 9.307198
vt -23.826771 9.307198
vt 19.725300 4.204664
vt -23.826771 4.204653
vt 15.579680 4.204663
vt -19.725300 4.204665
vt 15.579680 8.454662
vt -19.725300 8.454664
vt 15.579680 9.307199
vt -19.725300 9.307198
vt -0.132751 8.454659
vt -15.340990 8.454647
vt -0.132751 9.307200
vt 5.861722 8.392971
vt 5.861720 8.454650
vt 5.861722 4.158520
vt 5.861719 4.248238
vt 5.861722 9.177846
vt 5.861722 9.242403
vt 5.861722 4.158520
vt -14.076770 4.204653
vt 5.861722 9.242403
vt -14.076770 9.307198
vt 5.861722 8.392975
vt -14.076770 8.454654
s 0
usemtl Walls
f 1/1/1 2/5/1 4/11/1 3/8/1
f 2/7/2 5/14/2 6/16/2 4/12/2
f 8/19/3 1/2/3 3/9/3 9/22/3
f 3/10/4 4/13/4 6/15/4 9/21/4
f 10/25/5 11/28/5 13/33/5 12/29/5
f 13/34/2 11/27/2 5/14/2 2/7/2
f 10/24/3 12/30/3 1/2/3 8/19/3
f 15/37/4 16/40/4 2/6/4 1/3/4
f 17/44/6 15/39/6 1/4/6 12/31/6
f 16/42/2 18/47/2 13/34/2 2/7/2
f 18/46/7 17/43/7 12/32/7 13/35/7
f 21/56/4 22/59/4 20/52/4 19/49/4
f 23/61/6 24/63/6 15/39/6 17/44/6
f 25/65/2 26/66/2 18/47/2 16/42/2
f 26/67/5 23/60/5 17/45/5 18/48/5
f 19/50/8 20/53/8 16/41/8 15/38/8
f 21/55/6 19/51/6 15/39/6 24/63/6
f 20/54/2 22/58/2 25/65/2 16/42/2
f 27/68/2 28/70/2 25/65/2 22/58/2
f 28/70/2 29/72/2 26/66/2 25/65/2
f 30/74/8 31/76/8 29/73/8 28/71/8
f 32/78/8 30/74/8 28/71/8 27/69/8
f 33/80/6 34/82/6 30/75/6 32/79/6
f 34/82/6 35/84/6 31/77/6 30/75/6
f 7/17/1 36/86/1 34/83/1 33/81/1
f 36/86/1 37/88/1 35/85/1 34/83/1
f 36/87/2 7/18/2 6/16/2 5/14/2
f 14/36/2 36/87/2 5/14/2 11/27/2
f 6/16/8 5/14/8 8/19/8 9/22/8
f 11/28/8 10/25/8 8/19/8 5/14/8
f 22/59/1 21/56/1 24/63/1 25/65/1
f 25/65/1 24/63/1 23/61/1 26/67/1
f 9/23/1 39/91/1 38/89/1 8/20/1
f 24/64/8 43/99/8 41/95/8 21/57/8
f 23/62/8 42/97/8 43/99/8 24/64/8
f 8/20/1 38/89/1 40/93/1 10/26/1
f 38/90/9 39/92/9 41/96/9 43/100/9
f 38/90/9 43/100/9 42/98/9 40/94/9
